<?xml version="1.0" encoding="utf-8"?>
<!-- Generator: Adobe Illustrator 23.0.6, SVG Export Plug-In . SVG Version: 6.00 Build 0)  -->
<svg version="1.1" id="Layer_1" focusable="false" xmlns="http://www.w3.org/2000/svg" xmlns:xlink="http://www.w3.org/1999/xlink"
	 x="0px" y="0px" viewBox="0 0 512 512" style="enable-background:new 0 0 512 512;" xml:space="preserve">
<style type="text/css">
	.st0{fill:#FFFFFF;}
</style>
<path class="st0" d="M502.2,201.7c14.5,85.9-30.9,167.9-113.2,208.1c13,34.1-12.4,70.2-48.3,70.2c-27.5,0-50.1-21.6-51.6-49
	c-6.4,0.2-64.2,0-76.3-0.6c-1.2,28.5-25.2,50.7-53.7,49.6c0,0,0,0,0,0c-33.9-1.4-57.9-34.8-47-67.9c-37.2-13.1-72.5-34.9-99.6-70.8
	c-13-17.3-0.5-41.8,20.8-41.8c46.3,0,32.2-54.2,43.1-110.3C94.8,95.2,193.1,32,288.1,32C390.6,32,485.2,102.7,502.2,201.7
	L502.2,201.7z M373.5,388.3c42-19.2,81.3-56.7,96.3-102.1c40.5-123.1-64.1-228-181.7-228c-83.4,0-170.3,55.4-186.1,136
	c-9.5,48.9,5,131.4-68.8,131.4c24.9,33.1,58.3,52.6,93.7,64c24.7-21.8,63.9-15.5,79.8,14.3c14.2,1,79.2,1.2,87.9,0.8
	c13-25.4,44.2-35.5,69.6-22.5C367.6,383.9,370.7,385.9,373.5,388.3z M205.1,187.1c0-34.7,50.8-34.8,50.8,0S205.1,221.9,205.1,187.1z
	 M321.7,187.1c0-34.7,50.9-34.8,50.9,0S321.7,221.9,321.7,187.1z M199.1,257.8c-3.4-16.9,22.2-22.2,25.6-5.2l0.1,0.3
	c4.1,21.4,29.9,44,64.1,43.1c35.7-0.9,59.3-22.2,64.1-42.8c4.5-16.1,28.6-10.4,25.5,6c-5.2,22.2-31.2,62-91.5,62.9
	C244.4,322.1,206.1,294.3,199.1,257.8L199.1,257.8z"/>
</svg>
